<svg width="114" height="153" viewBox="0 0 114 153" fill="none" xmlns="http://www.w3.org/2000/svg">
<path d="M59.4531 69.7812H50.7344C50.7656 66.7812 51.0312 64.3281 51.5312 62.4219C52.0625 60.4844 52.9219 58.7188 54.1094 57.125C55.2969 55.5312 56.875 53.7188 58.8438 51.6875C60.2812 50.2188 61.5938 48.8438 62.7812 47.5625C64 46.25 64.9844 44.8438 65.7344 43.3438C66.4844 41.8125 66.8594 39.9844 66.8594 37.8594C66.8594 35.7031 66.4688 33.8438 65.6875 32.2812C64.9375 30.7188 63.8125 29.5156 62.3125 28.6719C60.8438 27.8281 59.0156 27.4062 56.8281 27.4062C55.0156 27.4062 53.2969 27.7344 51.6719 28.3906C50.0469 29.0469 48.7344 30.0625 47.7344 31.4375C46.7344 32.7812 46.2188 34.5469 46.1875 36.7344H37.5156C37.5781 33.2031 38.4531 30.1719 40.1406 27.6406C41.8594 25.1094 44.1719 23.1719 47.0781 21.8281C49.9844 20.4844 53.2344 19.8125 56.8281 19.8125C60.7969 19.8125 64.1719 20.5312 66.9531 21.9688C69.7656 23.4063 71.9062 25.4688 73.375 28.1562C74.8438 30.8125 75.5781 33.9688 75.5781 37.625C75.5781 40.4375 75 43.0312 73.8438 45.4062C72.7188 47.75 71.2656 49.9531 69.4844 52.0156C67.7031 54.0781 65.8125 56.0469 63.8125 57.9219C62.0938 59.5156 60.9375 61.3125 60.3438 63.3125C59.75 65.3125 59.4531 67.4688 59.4531 69.7812ZM50.3594 84.6406C50.3594 83.2344 50.7969 82.0469 51.6719 81.0781C52.5469 80.1094 53.8125 79.625 55.4688 79.625C57.1562 79.625 58.4375 80.1094 59.3125 81.0781C60.1875 82.0469 60.625 83.2344 60.625 84.6406C60.625 85.9844 60.1875 87.1406 59.3125 88.1094C58.4375 89.0781 57.1562 89.5625 55.4688 89.5625C53.8125 89.5625 52.5469 89.0781 51.6719 88.1094C50.7969 87.1406 50.3594 85.9844 50.3594 84.6406Z" fill="#844404"/>
<path d="M10.1104 111.203V124H8.41406V111.203H10.1104ZM14.5664 116.38V124H12.9316V114.49H14.4785L14.5664 116.38ZM14.2324 118.885L13.4766 118.858C13.4824 118.208 13.5674 117.607 13.7314 117.057C13.8955 116.5 14.1387 116.017 14.4609 115.606C14.7832 115.196 15.1846 114.88 15.665 114.657C16.1455 114.429 16.7021 114.314 17.335 114.314C17.7803 114.314 18.1904 114.379 18.5654 114.508C18.9404 114.631 19.2656 114.827 19.541 115.097C19.8164 115.366 20.0303 115.712 20.1826 116.134C20.335 116.556 20.4111 117.065 20.4111 117.663V124H18.7852V117.742C18.7852 117.244 18.7002 116.846 18.5303 116.547C18.3662 116.248 18.1318 116.031 17.8271 115.896C17.5225 115.756 17.165 115.686 16.7549 115.686C16.2744 115.686 15.873 115.771 15.5508 115.94C15.2285 116.11 14.9707 116.345 14.7773 116.644C14.584 116.942 14.4434 117.285 14.3555 117.672C14.2734 118.053 14.2324 118.457 14.2324 118.885ZM20.3936 117.988L19.3037 118.322C19.3096 117.801 19.3945 117.3 19.5586 116.819C19.7285 116.339 19.9717 115.911 20.2881 115.536C20.6104 115.161 21.0059 114.865 21.4746 114.648C21.9434 114.426 22.4795 114.314 23.083 114.314C23.5928 114.314 24.0439 114.382 24.4365 114.517C24.835 114.651 25.1689 114.859 25.4385 115.141C25.7139 115.416 25.9219 115.771 26.0625 116.204C26.2031 116.638 26.2734 117.153 26.2734 117.751V124H24.6387V117.733C24.6387 117.2 24.5537 116.787 24.3838 116.494C24.2197 116.195 23.9854 115.987 23.6807 115.87C23.3818 115.747 23.0244 115.686 22.6084 115.686C22.251 115.686 21.9346 115.747 21.6592 115.87C21.3838 115.993 21.1523 116.163 20.9648 116.38C20.7773 116.591 20.6338 116.834 20.5342 117.109C20.4404 117.385 20.3936 117.678 20.3936 117.988ZM34.3418 122.374V117.479C34.3418 117.104 34.2656 116.778 34.1133 116.503C33.9668 116.222 33.7441 116.005 33.4453 115.853C33.1465 115.7 32.7773 115.624 32.3379 115.624C31.9277 115.624 31.5674 115.694 31.2568 115.835C30.9521 115.976 30.7119 116.16 30.5361 116.389C30.3662 116.617 30.2812 116.863 30.2812 117.127H28.6553C28.6553 116.787 28.7432 116.45 28.9189 116.116C29.0947 115.782 29.3467 115.48 29.6748 115.211C30.0088 114.936 30.4072 114.719 30.8701 114.561C31.3389 114.396 31.8604 114.314 32.4346 114.314C33.126 114.314 33.7354 114.432 34.2627 114.666C34.7959 114.9 35.2119 115.255 35.5107 115.729C35.8154 116.198 35.9678 116.787 35.9678 117.496V121.926C35.9678 122.242 35.9941 122.579 36.0469 122.937C36.1055 123.294 36.1904 123.602 36.3018 123.859V124H34.6055C34.5234 123.812 34.459 123.563 34.4121 123.253C34.3652 122.937 34.3418 122.644 34.3418 122.374ZM34.623 118.234L34.6406 119.377H32.9971C32.5342 119.377 32.1211 119.415 31.7578 119.491C31.3945 119.562 31.0898 119.67 30.8438 119.816C30.5977 119.963 30.4102 120.147 30.2812 120.37C30.1523 120.587 30.0879 120.842 30.0879 121.135C30.0879 121.434 30.1553 121.706 30.29 121.952C30.4248 122.198 30.627 122.395 30.8965 122.541C31.1719 122.682 31.5088 122.752 31.9072 122.752C32.4053 122.752 32.8447 122.646 33.2256 122.436C33.6064 122.225 33.9082 121.967 34.1309 121.662C34.3594 121.357 34.4824 121.062 34.5 120.774L35.1943 121.557C35.1533 121.803 35.042 122.075 34.8604 122.374C34.6787 122.673 34.4355 122.96 34.1309 123.235C33.832 123.505 33.4746 123.73 33.0586 123.912C32.6484 124.088 32.1855 124.176 31.6699 124.176C31.0254 124.176 30.46 124.05 29.9736 123.798C29.4932 123.546 29.1182 123.209 28.8486 122.787C28.585 122.359 28.4531 121.882 28.4531 121.354C28.4531 120.845 28.5527 120.396 28.752 120.01C28.9512 119.617 29.2383 119.292 29.6133 119.034C29.9883 118.771 30.4395 118.571 30.9668 118.437C31.4941 118.302 32.083 118.234 32.7334 118.234H34.623ZM44.6865 114.49H46.1631V123.798C46.1631 124.636 45.9932 125.351 45.6533 125.942C45.3135 126.534 44.8389 126.982 44.2295 127.287C43.626 127.598 42.9287 127.753 42.1377 127.753C41.8096 127.753 41.4229 127.7 40.9775 127.595C40.5381 127.495 40.1045 127.322 39.6768 127.076C39.2549 126.836 38.9004 126.511 38.6133 126.101L39.4658 125.134C39.8643 125.614 40.2803 125.948 40.7139 126.136C41.1533 126.323 41.5869 126.417 42.0146 126.417C42.5303 126.417 42.9756 126.32 43.3506 126.127C43.7256 125.934 44.0156 125.646 44.2207 125.266C44.4316 124.891 44.5371 124.428 44.5371 123.877V116.582L44.6865 114.49ZM38.1387 119.351V119.166C38.1387 118.439 38.2236 117.78 38.3936 117.188C38.5693 116.591 38.8184 116.078 39.1406 115.65C39.4688 115.223 39.8643 114.895 40.3271 114.666C40.79 114.432 41.3115 114.314 41.8916 114.314C42.4893 114.314 43.0107 114.42 43.4561 114.631C43.9072 114.836 44.2881 115.138 44.5986 115.536C44.915 115.929 45.1641 116.403 45.3457 116.96C45.5273 117.517 45.6533 118.146 45.7236 118.85V119.658C45.6592 120.355 45.5332 120.982 45.3457 121.539C45.1641 122.096 44.915 122.57 44.5986 122.963C44.2881 123.355 43.9072 123.657 43.4561 123.868C43.0049 124.073 42.4775 124.176 41.874 124.176C41.3057 124.176 40.79 124.056 40.3271 123.815C39.8701 123.575 39.4775 123.238 39.1494 122.805C38.8213 122.371 38.5693 121.861 38.3936 121.275C38.2236 120.684 38.1387 120.042 38.1387 119.351ZM39.7646 119.166V119.351C39.7646 119.825 39.8115 120.271 39.9053 120.687C40.0049 121.103 40.1543 121.469 40.3535 121.785C40.5586 122.102 40.8193 122.351 41.1357 122.532C41.4521 122.708 41.8301 122.796 42.2695 122.796C42.8086 122.796 43.2539 122.682 43.6055 122.453C43.957 122.225 44.2354 121.923 44.4404 121.548C44.6514 121.173 44.8154 120.766 44.9326 120.326V118.208C44.8682 117.886 44.7686 117.575 44.6338 117.276C44.5049 116.972 44.335 116.702 44.124 116.468C43.9189 116.228 43.6641 116.037 43.3594 115.896C43.0547 115.756 42.6973 115.686 42.2871 115.686C41.8418 115.686 41.458 115.779 41.1357 115.967C40.8193 116.148 40.5586 116.4 40.3535 116.723C40.1543 117.039 40.0049 117.408 39.9053 117.83C39.8115 118.246 39.7646 118.691 39.7646 119.166ZM52.5791 124.176C51.917 124.176 51.3164 124.064 50.7773 123.842C50.2441 123.613 49.7842 123.294 49.3975 122.884C49.0166 122.474 48.7236 121.987 48.5186 121.425C48.3135 120.862 48.2109 120.247 48.2109 119.579V119.21C48.2109 118.437 48.3252 117.748 48.5537 117.145C48.7822 116.535 49.0928 116.02 49.4854 115.598C49.8779 115.176 50.3232 114.856 50.8213 114.64C51.3193 114.423 51.835 114.314 52.3682 114.314C53.0479 114.314 53.6338 114.432 54.126 114.666C54.624 114.9 55.0312 115.229 55.3477 115.65C55.6641 116.066 55.8984 116.559 56.0508 117.127C56.2031 117.689 56.2793 118.305 56.2793 118.973V119.702H49.1777V118.375H54.6533V118.252C54.6299 117.83 54.542 117.42 54.3896 117.021C54.2432 116.623 54.0088 116.295 53.6865 116.037C53.3643 115.779 52.9248 115.65 52.3682 115.65C51.999 115.65 51.6592 115.729 51.3486 115.888C51.0381 116.04 50.7715 116.269 50.5488 116.573C50.3262 116.878 50.1533 117.25 50.0303 117.689C49.9072 118.129 49.8457 118.636 49.8457 119.21V119.579C49.8457 120.03 49.9072 120.455 50.0303 120.854C50.1592 121.246 50.3438 121.592 50.584 121.891C50.8301 122.189 51.126 122.424 51.4717 122.594C51.8232 122.764 52.2217 122.849 52.667 122.849C53.2412 122.849 53.7275 122.731 54.126 122.497C54.5244 122.263 54.873 121.949 55.1719 121.557L56.1562 122.339C55.9512 122.649 55.6904 122.945 55.374 123.227C55.0576 123.508 54.668 123.736 54.2051 123.912C53.748 124.088 53.2061 124.176 52.5791 124.176ZM59.7949 116.38V124H58.1602V114.49H59.707L59.7949 116.38ZM59.4609 118.885L58.7051 118.858C58.7109 118.208 58.7959 117.607 58.96 117.057C59.124 116.5 59.3672 116.017 59.6895 115.606C60.0117 115.196 60.4131 114.88 60.8936 114.657C61.374 114.429 61.9307 114.314 62.5635 114.314C63.0088 114.314 63.4189 114.379 63.7939 114.508C64.1689 114.631 64.4941 114.827 64.7695 115.097C65.0449 115.366 65.2588 115.712 65.4111 116.134C65.5635 116.556 65.6396 117.065 65.6396 117.663V124H64.0137V117.742C64.0137 117.244 63.9287 116.846 63.7588 116.547C63.5947 116.248 63.3604 116.031 63.0557 115.896C62.751 115.756 62.3936 115.686 61.9834 115.686C61.5029 115.686 61.1016 115.771 60.7793 115.94C60.457 116.11 60.1992 116.345 60.0059 116.644C59.8125 116.942 59.6719 117.285 59.584 117.672C59.502 118.053 59.4609 118.457 59.4609 118.885ZM65.6221 117.988L64.5322 118.322C64.5381 117.801 64.623 117.3 64.7871 116.819C64.957 116.339 65.2002 115.911 65.5166 115.536C65.8389 115.161 66.2344 114.865 66.7031 114.648C67.1719 114.426 67.708 114.314 68.3115 114.314C68.8213 114.314 69.2725 114.382 69.665 114.517C70.0635 114.651 70.3975 114.859 70.667 115.141C70.9424 115.416 71.1504 115.771 71.291 116.204C71.4316 116.638 71.502 117.153 71.502 117.751V124H69.8672V117.733C69.8672 117.2 69.7822 116.787 69.6123 116.494C69.4482 116.195 69.2139 115.987 68.9092 115.87C68.6104 115.747 68.2529 115.686 67.8369 115.686C67.4795 115.686 67.1631 115.747 66.8877 115.87C66.6123 115.993 66.3809 116.163 66.1934 116.38C66.0059 116.591 65.8623 116.834 65.7627 117.109C65.6689 117.385 65.6221 117.678 65.6221 117.988ZM80.0537 116.521V124H78.4277V114.49H79.9658L80.0537 116.521ZM79.667 118.885L78.9902 118.858C78.9961 118.208 79.0928 117.607 79.2803 117.057C79.4678 116.5 79.7314 116.017 80.0713 115.606C80.4111 115.196 80.8154 114.88 81.2842 114.657C81.7588 114.429 82.2832 114.314 82.8574 114.314C83.3262 114.314 83.748 114.379 84.123 114.508C84.498 114.631 84.8174 114.83 85.0811 115.105C85.3506 115.381 85.5557 115.738 85.6963 116.178C85.8369 116.611 85.9072 117.142 85.9072 117.769V124H84.2725V117.751C84.2725 117.253 84.1992 116.854 84.0527 116.556C83.9062 116.251 83.6924 116.031 83.4111 115.896C83.1299 115.756 82.7842 115.686 82.374 115.686C81.9697 115.686 81.6006 115.771 81.2666 115.94C80.9385 116.11 80.6543 116.345 80.4141 116.644C80.1797 116.942 79.9951 117.285 79.8604 117.672C79.7314 118.053 79.667 118.457 79.667 118.885ZM93.9844 122.374V117.479C93.9844 117.104 93.9082 116.778 93.7559 116.503C93.6094 116.222 93.3867 116.005 93.0879 115.853C92.7891 115.7 92.4199 115.624 91.9805 115.624C91.5703 115.624 91.21 115.694 90.8994 115.835C90.5947 115.976 90.3545 116.16 90.1787 116.389C90.0088 116.617 89.9238 116.863 89.9238 117.127H88.2979C88.2979 116.787 88.3857 116.45 88.5615 116.116C88.7373 115.782 88.9893 115.48 89.3174 115.211C89.6514 114.936 90.0498 114.719 90.5127 114.561C90.9814 114.396 91.5029 114.314 92.0771 114.314C92.7686 114.314 93.3779 114.432 93.9053 114.666C94.4385 114.9 94.8545 115.255 95.1533 115.729C95.458 116.198 95.6104 116.787 95.6104 117.496V121.926C95.6104 122.242 95.6367 122.579 95.6895 122.937C95.748 123.294 95.833 123.602 95.9443 123.859V124H94.248C94.166 123.812 94.1016 123.563 94.0547 123.253C94.0078 122.937 93.9844 122.644 93.9844 122.374ZM94.2656 118.234L94.2832 119.377H92.6396C92.1768 119.377 91.7637 119.415 91.4004 119.491C91.0371 119.562 90.7324 119.67 90.4863 119.816C90.2402 119.963 90.0527 120.147 89.9238 120.37C89.7949 120.587 89.7305 120.842 89.7305 121.135C89.7305 121.434 89.7979 121.706 89.9326 121.952C90.0674 122.198 90.2695 122.395 90.5391 122.541C90.8145 122.682 91.1514 122.752 91.5498 122.752C92.0479 122.752 92.4873 122.646 92.8682 122.436C93.249 122.225 93.5508 121.967 93.7734 121.662C94.002 121.357 94.125 121.062 94.1426 120.774L94.8369 121.557C94.7959 121.803 94.6846 122.075 94.5029 122.374C94.3213 122.673 94.0781 122.96 93.7734 123.235C93.4746 123.505 93.1172 123.73 92.7012 123.912C92.291 124.088 91.8281 124.176 91.3125 124.176C90.668 124.176 90.1025 124.05 89.6162 123.798C89.1357 123.546 88.7607 123.209 88.4912 122.787C88.2275 122.359 88.0957 121.882 88.0957 121.354C88.0957 120.845 88.1953 120.396 88.3945 120.01C88.5938 119.617 88.8809 119.292 89.2559 119.034C89.6309 118.771 90.082 118.571 90.6094 118.437C91.1367 118.302 91.7256 118.234 92.376 118.234H94.2656ZM94.2744 110.676L95.373 110.772C95.373 111.2 95.2881 111.575 95.1182 111.897C94.9482 112.22 94.7197 112.469 94.4326 112.645C94.1514 112.82 93.832 112.908 93.4746 112.908C93.1758 112.908 92.9297 112.867 92.7363 112.785C92.543 112.697 92.3701 112.601 92.2178 112.495C92.0654 112.384 91.9043 112.287 91.7344 112.205C91.5703 112.117 91.3652 112.073 91.1191 112.073C90.873 112.073 90.665 112.167 90.4951 112.354C90.3311 112.542 90.249 112.773 90.249 113.049L89.1504 112.996C89.1504 112.568 89.2324 112.193 89.3965 111.871C89.5664 111.543 89.7949 111.288 90.082 111.106C90.3691 110.919 90.6885 110.825 91.04 110.825C91.292 110.825 91.5117 110.869 91.6992 110.957C91.8926 111.039 92.0742 111.136 92.2441 111.247C92.4141 111.353 92.5898 111.449 92.7715 111.537C92.9531 111.619 93.1611 111.66 93.3955 111.66C93.6416 111.66 93.8496 111.566 94.0195 111.379C94.1895 111.186 94.2744 110.951 94.2744 110.676ZM97.7373 119.351V119.148C97.7373 118.463 97.8369 117.827 98.0361 117.241C98.2354 116.649 98.5225 116.137 98.8975 115.703C99.2725 115.264 99.7266 114.924 100.26 114.684C100.793 114.438 101.391 114.314 102.053 114.314C102.721 114.314 103.321 114.438 103.854 114.684C104.394 114.924 104.851 115.264 105.226 115.703C105.606 116.137 105.896 116.649 106.096 117.241C106.295 117.827 106.395 118.463 106.395 119.148V119.351C106.395 120.036 106.295 120.672 106.096 121.258C105.896 121.844 105.606 122.356 105.226 122.796C104.851 123.229 104.396 123.569 103.863 123.815C103.336 124.056 102.738 124.176 102.07 124.176C101.402 124.176 100.802 124.056 100.269 123.815C99.7354 123.569 99.2783 123.229 98.8975 122.796C98.5225 122.356 98.2354 121.844 98.0361 121.258C97.8369 120.672 97.7373 120.036 97.7373 119.351ZM99.3633 119.148V119.351C99.3633 119.825 99.4189 120.273 99.5303 120.695C99.6416 121.111 99.8086 121.48 100.031 121.803C100.26 122.125 100.544 122.38 100.884 122.567C101.224 122.749 101.619 122.84 102.07 122.84C102.516 122.84 102.905 122.749 103.239 122.567C103.579 122.38 103.86 122.125 104.083 121.803C104.306 121.48 104.473 121.111 104.584 120.695C104.701 120.273 104.76 119.825 104.76 119.351V119.148C104.76 118.68 104.701 118.237 104.584 117.821C104.473 117.399 104.303 117.027 104.074 116.705C103.852 116.377 103.57 116.119 103.23 115.932C102.896 115.744 102.504 115.65 102.053 115.65C101.607 115.65 101.215 115.744 100.875 115.932C100.541 116.119 100.26 116.377 100.031 116.705C99.8086 117.027 99.6416 117.399 99.5303 117.821C99.4189 118.237 99.3633 118.68 99.3633 119.148ZM16.9307 145.176C16.2686 145.176 15.668 145.064 15.1289 144.842C14.5957 144.613 14.1357 144.294 13.749 143.884C13.3682 143.474 13.0752 142.987 12.8701 142.425C12.665 141.862 12.5625 141.247 12.5625 140.579V140.21C12.5625 139.437 12.6768 138.748 12.9053 138.145C13.1338 137.535 13.4443 137.02 13.8369 136.598C14.2295 136.176 14.6748 135.856 15.1729 135.64C15.6709 135.423 16.1865 135.314 16.7197 135.314C17.3994 135.314 17.9854 135.432 18.4775 135.666C18.9756 135.9 19.3828 136.229 19.6992 136.65C20.0156 137.066 20.25 137.559 20.4023 138.127C20.5547 138.689 20.6309 139.305 20.6309 139.973V140.702H13.5293V139.375H19.0049V139.252C18.9814 138.83 18.8936 138.42 18.7412 138.021C18.5947 137.623 18.3604 137.295 18.0381 137.037C17.7158 136.779 17.2764 136.65 16.7197 136.65C16.3506 136.65 16.0107 136.729 15.7002 136.888C15.3896 137.04 15.123 137.269 14.9004 137.573C14.6777 137.878 14.5049 138.25 14.3818 138.689C14.2588 139.129 14.1973 139.636 14.1973 140.21V140.579C14.1973 141.03 14.2588 141.455 14.3818 141.854C14.5107 142.246 14.6953 142.592 14.9355 142.891C15.1816 143.189 15.4775 143.424 15.8232 143.594C16.1748 143.764 16.5732 143.849 17.0186 143.849C17.5928 143.849 18.0791 143.731 18.4775 143.497C18.876 143.263 19.2246 142.949 19.5234 142.557L20.5078 143.339C20.3027 143.649 20.042 143.945 19.7256 144.227C19.4092 144.508 19.0195 144.736 18.5566 144.912C18.0996 145.088 17.5576 145.176 16.9307 145.176ZM24.1553 137.521V145H22.5293V135.49H24.0674L24.1553 137.521ZM23.7686 139.885L23.0918 139.858C23.0977 139.208 23.1943 138.607 23.3818 138.057C23.5693 137.5 23.833 137.017 24.1729 136.606C24.5127 136.196 24.917 135.88 25.3857 135.657C25.8604 135.429 26.3848 135.314 26.959 135.314C27.4277 135.314 27.8496 135.379 28.2246 135.508C28.5996 135.631 28.9189 135.83 29.1826 136.105C29.4521 136.381 29.6572 136.738 29.7979 137.178C29.9385 137.611 30.0088 138.142 30.0088 138.769V145H28.374V138.751C28.374 138.253 28.3008 137.854 28.1543 137.556C28.0078 137.251 27.7939 137.031 27.5127 136.896C27.2314 136.756 26.8857 136.686 26.4756 136.686C26.0713 136.686 25.7021 136.771 25.3682 136.94C25.04 137.11 24.7559 137.345 24.5156 137.644C24.2812 137.942 24.0967 138.285 23.9619 138.672C23.833 139.053 23.7686 139.457 23.7686 139.885ZM36.2842 143.84C36.6709 143.84 37.0283 143.761 37.3564 143.603C37.6846 143.444 37.9541 143.228 38.165 142.952C38.376 142.671 38.4961 142.352 38.5254 141.994H40.0723C40.043 142.557 39.8525 143.081 39.501 143.567C39.1553 144.048 38.7012 144.438 38.1387 144.736C37.5762 145.029 36.958 145.176 36.2842 145.176C35.5693 145.176 34.9453 145.05 34.4121 144.798C33.8848 144.546 33.4453 144.2 33.0938 143.761C32.748 143.321 32.4873 142.817 32.3115 142.249C32.1416 141.675 32.0566 141.068 32.0566 140.43V140.061C32.0566 139.422 32.1416 138.818 32.3115 138.25C32.4873 137.676 32.748 137.169 33.0938 136.729C33.4453 136.29 33.8848 135.944 34.4121 135.692C34.9453 135.44 35.5693 135.314 36.2842 135.314C37.0283 135.314 37.6787 135.467 38.2354 135.771C38.792 136.07 39.2285 136.48 39.5449 137.002C39.8672 137.518 40.043 138.104 40.0723 138.76H38.5254C38.4961 138.367 38.3848 138.013 38.1914 137.696C38.0039 137.38 37.7461 137.128 37.418 136.94C37.0957 136.747 36.7178 136.65 36.2842 136.65C35.7861 136.65 35.3672 136.75 35.0273 136.949C34.6934 137.143 34.4268 137.406 34.2275 137.74C34.0342 138.068 33.8936 138.435 33.8057 138.839C33.7236 139.237 33.6826 139.645 33.6826 140.061V140.43C33.6826 140.846 33.7236 141.256 33.8057 141.66C33.8877 142.064 34.0254 142.431 34.2188 142.759C34.418 143.087 34.6846 143.351 35.0186 143.55C35.3584 143.743 35.7803 143.84 36.2842 143.84ZM41.4697 140.351V140.148C41.4697 139.463 41.5693 138.827 41.7686 138.241C41.9678 137.649 42.2549 137.137 42.6299 136.703C43.0049 136.264 43.459 135.924 43.9922 135.684C44.5254 135.438 45.123 135.314 45.7852 135.314C46.4531 135.314 47.0537 135.438 47.5869 135.684C48.126 135.924 48.583 136.264 48.958 136.703C49.3389 137.137 49.6289 137.649 49.8281 138.241C50.0273 138.827 50.127 139.463 50.127 140.148V140.351C50.127 141.036 50.0273 141.672 49.8281 142.258C49.6289 142.844 49.3389 143.356 48.958 143.796C48.583 144.229 48.1289 144.569 47.5957 144.815C47.0684 145.056 46.4707 145.176 45.8027 145.176C45.1348 145.176 44.5342 145.056 44.001 144.815C43.4678 144.569 43.0107 144.229 42.6299 143.796C42.2549 143.356 41.9678 142.844 41.7686 142.258C41.5693 141.672 41.4697 141.036 41.4697 140.351ZM43.0957 140.148V140.351C43.0957 140.825 43.1514 141.273 43.2627 141.695C43.374 142.111 43.541 142.48 43.7637 142.803C43.9922 143.125 44.2764 143.38 44.6162 143.567C44.9561 143.749 45.3516 143.84 45.8027 143.84C46.248 143.84 46.6377 143.749 46.9717 143.567C47.3115 143.38 47.5928 143.125 47.8154 142.803C48.0381 142.48 48.2051 142.111 48.3164 141.695C48.4336 141.273 48.4922 140.825 48.4922 140.351V140.148C48.4922 139.68 48.4336 139.237 48.3164 138.821C48.2051 138.399 48.0352 138.027 47.8066 137.705C47.584 137.377 47.3027 137.119 46.9629 136.932C46.6289 136.744 46.2363 136.65 45.7852 136.65C45.3398 136.65 44.9473 136.744 44.6074 136.932C44.2734 137.119 43.9922 137.377 43.7637 137.705C43.541 138.027 43.374 138.399 43.2627 138.821C43.1514 139.237 43.0957 139.68 43.0957 140.148ZM53.792 137.521V145H52.166V135.49H53.7041L53.792 137.521ZM53.4053 139.885L52.7285 139.858C52.7344 139.208 52.8311 138.607 53.0186 138.057C53.2061 137.5 53.4697 137.017 53.8096 136.606C54.1494 136.196 54.5537 135.88 55.0225 135.657C55.4971 135.429 56.0215 135.314 56.5957 135.314C57.0645 135.314 57.4863 135.379 57.8613 135.508C58.2363 135.631 58.5557 135.83 58.8193 136.105C59.0889 136.381 59.2939 136.738 59.4346 137.178C59.5752 137.611 59.6455 138.142 59.6455 138.769V145H58.0107V138.751C58.0107 138.253 57.9375 137.854 57.791 137.556C57.6445 137.251 57.4307 137.031 57.1494 136.896C56.8682 136.756 56.5225 136.686 56.1123 136.686C55.708 136.686 55.3389 136.771 55.0049 136.94C54.6768 137.11 54.3926 137.345 54.1523 137.644C53.918 137.942 53.7334 138.285 53.5986 138.672C53.4697 139.053 53.4053 139.457 53.4053 139.885ZM66.0967 135.49V136.738H60.9551V135.49H66.0967ZM62.6953 133.179H64.3213V142.645C64.3213 142.967 64.3711 143.21 64.4707 143.374C64.5703 143.538 64.6992 143.646 64.8574 143.699C65.0156 143.752 65.1855 143.778 65.3672 143.778C65.502 143.778 65.6426 143.767 65.7891 143.743C65.9414 143.714 66.0557 143.69 66.1318 143.673L66.1406 145C66.0117 145.041 65.8418 145.079 65.6309 145.114C65.4258 145.155 65.1768 145.176 64.8838 145.176C64.4854 145.176 64.1191 145.097 63.7852 144.938C63.4512 144.78 63.1846 144.517 62.9854 144.147C62.792 143.772 62.6953 143.269 62.6953 142.636V133.179ZM69.6299 136.984V145H68.0039V135.49H69.5859L69.6299 136.984ZM72.6006 135.438L72.5918 136.949C72.457 136.92 72.3281 136.902 72.2051 136.896C72.0879 136.885 71.9531 136.879 71.8008 136.879C71.4258 136.879 71.0947 136.938 70.8076 137.055C70.5205 137.172 70.2773 137.336 70.0781 137.547C69.8789 137.758 69.7207 138.01 69.6035 138.303C69.4922 138.59 69.4189 138.906 69.3838 139.252L68.9268 139.516C68.9268 138.941 68.9824 138.402 69.0938 137.898C69.2109 137.395 69.3896 136.949 69.6299 136.562C69.8701 136.17 70.1748 135.865 70.5439 135.648C70.9189 135.426 71.3643 135.314 71.8799 135.314C71.9971 135.314 72.1318 135.329 72.2842 135.358C72.4365 135.382 72.542 135.408 72.6006 135.438ZM79.3594 143.374V138.479C79.3594 138.104 79.2832 137.778 79.1309 137.503C78.9844 137.222 78.7617 137.005 78.4629 136.853C78.1641 136.7 77.7949 136.624 77.3555 136.624C76.9453 136.624 76.585 136.694 76.2744 136.835C75.9697 136.976 75.7295 137.16 75.5537 137.389C75.3838 137.617 75.2988 137.863 75.2988 138.127H73.6729C73.6729 137.787 73.7607 137.45 73.9365 137.116C74.1123 136.782 74.3643 136.48 74.6924 136.211C75.0264 135.936 75.4248 135.719 75.8877 135.561C76.3564 135.396 76.8779 135.314 77.4521 135.314C78.1436 135.314 78.7529 135.432 79.2803 135.666C79.8135 135.9 80.2295 136.255 80.5283 136.729C80.833 137.198 80.9854 137.787 80.9854 138.496V142.926C80.9854 143.242 81.0117 143.579 81.0645 143.937C81.123 144.294 81.208 144.602 81.3193 144.859V145H79.623C79.541 144.812 79.4766 144.563 79.4297 144.253C79.3828 143.937 79.3594 143.644 79.3594 143.374ZM79.6406 139.234L79.6582 140.377H78.0146C77.5518 140.377 77.1387 140.415 76.7754 140.491C76.4121 140.562 76.1074 140.67 75.8613 140.816C75.6152 140.963 75.4277 141.147 75.2988 141.37C75.1699 141.587 75.1055 141.842 75.1055 142.135C75.1055 142.434 75.1729 142.706 75.3076 142.952C75.4424 143.198 75.6445 143.395 75.9141 143.541C76.1895 143.682 76.5264 143.752 76.9248 143.752C77.4229 143.752 77.8623 143.646 78.2432 143.436C78.624 143.225 78.9258 142.967 79.1484 142.662C79.377 142.357 79.5 142.062 79.5176 141.774L80.2119 142.557C80.1709 142.803 80.0596 143.075 79.8779 143.374C79.6963 143.673 79.4531 143.96 79.1484 144.235C78.8496 144.505 78.4922 144.73 78.0762 144.912C77.666 145.088 77.2031 145.176 76.6875 145.176C76.043 145.176 75.4775 145.05 74.9912 144.798C74.5107 144.546 74.1357 144.209 73.8662 143.787C73.6025 143.359 73.4707 142.882 73.4707 142.354C73.4707 141.845 73.5703 141.396 73.7695 141.01C73.9688 140.617 74.2559 140.292 74.6309 140.034C75.0059 139.771 75.457 139.571 75.9844 139.437C76.5117 139.302 77.1006 139.234 77.751 139.234H79.6406ZM89.5371 143.154V131.5H91.1719V145H89.6777L89.5371 143.154ZM83.1387 140.351V140.166C83.1387 139.439 83.2266 138.78 83.4023 138.188C83.584 137.591 83.8389 137.078 84.167 136.65C84.501 136.223 84.8965 135.895 85.3535 135.666C85.8164 135.432 86.332 135.314 86.9004 135.314C87.498 135.314 88.0195 135.42 88.4648 135.631C88.916 135.836 89.2969 136.138 89.6074 136.536C89.9238 136.929 90.1729 137.403 90.3545 137.96C90.5361 138.517 90.6621 139.146 90.7324 139.85V140.658C90.668 141.355 90.542 141.982 90.3545 142.539C90.1729 143.096 89.9238 143.57 89.6074 143.963C89.2969 144.355 88.916 144.657 88.4648 144.868C88.0137 145.073 87.4863 145.176 86.8828 145.176C86.3262 145.176 85.8164 145.056 85.3535 144.815C84.8965 144.575 84.501 144.238 84.167 143.805C83.8389 143.371 83.584 142.861 83.4023 142.275C83.2266 141.684 83.1387 141.042 83.1387 140.351ZM84.7734 140.166V140.351C84.7734 140.825 84.8203 141.271 84.9141 141.687C85.0137 142.103 85.166 142.469 85.3711 142.785C85.5762 143.102 85.8369 143.351 86.1533 143.532C86.4697 143.708 86.8477 143.796 87.2871 143.796C87.8262 143.796 88.2686 143.682 88.6143 143.453C88.9658 143.225 89.2471 142.923 89.458 142.548C89.6689 142.173 89.833 141.766 89.9502 141.326V139.208C89.8799 138.886 89.7773 138.575 89.6426 138.276C89.5137 137.972 89.3438 137.702 89.1328 137.468C88.9277 137.228 88.6729 137.037 88.3682 136.896C88.0693 136.756 87.7148 136.686 87.3047 136.686C86.8594 136.686 86.4756 136.779 86.1533 136.967C85.8369 137.148 85.5762 137.4 85.3711 137.723C85.166 138.039 85.0137 138.408 84.9141 138.83C84.8203 139.246 84.7734 139.691 84.7734 140.166ZM99.3105 143.374V138.479C99.3105 138.104 99.2344 137.778 99.082 137.503C98.9355 137.222 98.7129 137.005 98.4141 136.853C98.1152 136.7 97.7461 136.624 97.3066 136.624C96.8965 136.624 96.5361 136.694 96.2256 136.835C95.9209 136.976 95.6807 137.16 95.5049 137.389C95.335 137.617 95.25 137.863 95.25 138.127H93.624C93.624 137.787 93.7119 137.45 93.8877 137.116C94.0635 136.782 94.3154 136.48 94.6436 136.211C94.9775 135.936 95.376 135.719 95.8389 135.561C96.3076 135.396 96.8291 135.314 97.4033 135.314C98.0947 135.314 98.7041 135.432 99.2314 135.666C99.7646 135.9 100.181 136.255 100.479 136.729C100.784 137.198 100.937 137.787 100.937 138.496V142.926C100.937 143.242 100.963 143.579 101.016 143.937C101.074 144.294 101.159 144.602 101.271 144.859V145H99.5742C99.4922 144.812 99.4277 144.563 99.3809 144.253C99.334 143.937 99.3105 143.644 99.3105 143.374ZM99.5918 139.234L99.6094 140.377H97.9658C97.5029 140.377 97.0898 140.415 96.7266 140.491C96.3633 140.562 96.0586 140.67 95.8125 140.816C95.5664 140.963 95.3789 141.147 95.25 141.37C95.1211 141.587 95.0566 141.842 95.0566 142.135C95.0566 142.434 95.124 142.706 95.2588 142.952C95.3936 143.198 95.5957 143.395 95.8652 143.541C96.1406 143.682 96.4775 143.752 96.876 143.752C97.374 143.752 97.8135 143.646 98.1943 143.436C98.5752 143.225 98.877 142.967 99.0996 142.662C99.3281 142.357 99.4512 142.062 99.4688 141.774L100.163 142.557C100.122 142.803 100.011 143.075 99.8291 143.374C99.6475 143.673 99.4043 143.96 99.0996 144.235C98.8008 144.505 98.4434 144.73 98.0273 144.912C97.6172 145.088 97.1543 145.176 96.6387 145.176C95.9941 145.176 95.4287 145.05 94.9424 144.798C94.4619 144.546 94.0869 144.209 93.8174 143.787C93.5537 143.359 93.4219 142.882 93.4219 142.354C93.4219 141.845 93.5215 141.396 93.7207 141.01C93.9199 140.617 94.207 140.292 94.582 140.034C94.957 139.771 95.4082 139.571 95.9355 139.437C96.4629 139.302 97.0518 139.234 97.7021 139.234H99.5918Z" fill="#844404"/>
</svg>
